<svg aria-hidden="true" style="position:absolute;width:0;height:0;overflow:hidden" xmlns="http://www.w3.org/2000/svg"><defs><symbol id="icon-antenna" viewBox="0 0 32 32"><path fill="#212121" style="fill:var(--color1, #212121)" d="m30.773 22.098-8.443-8.505.937-4.615c.242.094.499.144.758.146h.006a2.159 2.159 0 1 0-2.008-1.435l-4.96.605L8.972.161a.534.534 0 0 0-.377-.16.532.532 0 0 0-.373.155L6.709 1.66a.534.534 0 0 0 0 .754l.814.826a14.943 14.943 0 0 0 2.519 17.663.513.513 0 0 0 .146.098c-.034.18-.051.364-.052.547v6.187h-6.4a2.67 2.67 0 0 0-2.667 2.667v1.067c0 .295.239.533.533.533h24.533a.533.533 0 0 0 .533-.533v-1.067a2.67 2.67 0 0 0-2.667-2.667h-6.4v-2.742a15.09 15.09 0 0 0 3.049.32 14.854 14.854 0 0 0 7.04-1.783l.818.823a.534.534 0 0 0 .377.16.532.532 0 0 0 .373-.155l1.513-1.504a.534.534 0 0 0 0-.754zM23.28 6.233a1.066 1.066 0 1 1 .752 1.822h-.003a1.067 1.067 0 0 1-.747-1.823h-.002zm-1.256 3.505-.598 2.946-1.175-1.182 1.774-1.763zm-.605-.902-1.92 1.909-1.485-1.493 3.405-.415zM24.004 28.8a1.6 1.6 0 0 1 1.6 1.6v.533H2.137V30.4a1.6 1.6 0 0 1 1.6-1.6h20.267zm-7.467-2.133v1.067h-5.333v-1.067h5.333zM11.204 25.6v-4.053c0-1.294 1.196-2.347 2.667-2.347s2.667 1.053 2.667 2.347V25.6h-5.333zm6.4-1.696v-2.357c0-1.882-1.675-3.413-3.733-3.413a3.8 3.8 0 0 0-3.281 1.786A13.87 13.87 0 0 1 8.311 4.033l18.602 18.708a13.818 13.818 0 0 1-9.309 1.163zm11.289-.684L7.836 2.039l.755-.752 7.935 7.98c.004 0 .006.007.01.01l13.115 13.191-.757.752z"/><path fill="#2196f3" style="fill:var(--color2, #2196f3)" d="M13.876 20.267h-.005a1.6 1.6 0 1 0-.004 3.2h.005a1.6 1.6 0 1 0 .004-3.2zm.373 1.978a.534.534 0 0 1-.752-.756.534.534 0 0 1 .373-.155.532.532 0 0 1 .373.911h.005z"/></symbol><symbol id="icon-astronaut" viewBox="0 0 32 32"><path fill="#2196f3" style="fill:var(--color2, #2196f3)" d="M31.974 4.524a.534.534 0 0 0-.43-.363l-1.91-.278-.855-1.731c-.179-.365-.777-.365-.956 0l-.855 1.731-1.91.278a.535.535 0 0 0-.296.91l1.383 1.348-.326 1.903c-.034.2.048.402.212.522a.53.53 0 0 0 .562.04l1.709-.899 1.709.899a.536.536 0 0 0 .775-.563l-.326-1.903 1.383-1.348a.536.536 0 0 0 .135-.547zm-2.463 1.327a.534.534 0 0 0-.153.472l.191 1.114-1-.526a.533.533 0 0 0-.498 0l-1.001.526.191-1.114a.534.534 0 0 0-.153-.472l-.81-.789 1.119-.163a.532.532 0 0 0 .402-.292l.5-1.013.5 1.013a.535.535 0 0 0 .402.292l1.119.163-.809.789zm-3.377 14.671h-1.067v1.067h1.067v-1.067zm0 2.134h-1.067v1.067h1.067v-1.067zm1.066-1.067h-1.067v1.067H27.2v-1.067zm-2.133 0H24v1.067h1.067v-1.067zm-2.667 4.8h-1.067v1.067H22.4v-1.067zm0 2.133h-1.067v1.067H22.4v-1.067zm1.067-1.066H22.4v1.067h1.067v-1.067zm-2.134 0h-1.067v1.067h1.067v-1.067zM16 24.256h-1.067v1.067H16v-1.067zm0 2.133h-1.067v1.067H16v-1.067zm1.067-1.067H16v1.067h1.067v-1.067zm-2.134 0h-1.067v1.067h1.067v-1.067zm-9.066-19.2H4.8v1.067h1.067V6.122zm0 2.133H4.8v1.067h1.067V8.255z"/><path fill="#2196f3" style="fill:var(--color2, #2196f3)" d="M6.933 7.189H5.866v1.067h1.067V7.189zm-2.133 0H3.733v1.067H4.8V7.189z"/><path fill="#212121" style="fill:var(--color1, #212121)" d="M24.715 14.159a1.775 1.775 0 0 0-1.188-.705 1.778 1.778 0 0 0-1.34.352l-1.252.96-1.898 1.417-1.358-.541c2.421-1.086 4.114-3.508 4.114-6.32 0-3.823-3.123-6.933-6.961-6.933s-6.961 3.11-6.961 6.933a6.86 6.86 0 0 0 1.12 3.758l-2.764-.024h-.005c-.009 0-.015.004-.023.005a.515.515 0 0 0-.155.031l-.038.013c-.006.003-.013.003-.019.006l-3.233 1.596-.001.001-1.893.911a.397.397 0 0 0-.063.035 1.779 1.779 0 0 0-.598 2.295c.22.429.595.745 1.056.889a1.776 1.776 0 0 0 1.378-.128l1.388-.738 2.264-1.169 1.357-.008L2.2 22.211l-.002.001-1.339 1.333c-.316.315-.49.732-.49 1.178s.174.863.49 1.179c.325.323.752.485 1.179.485s.854-.162 1.18-.485l1.314-1.309 1.741-1.3.901.897-1.762 1.754-.002.001-1.339 1.333c-.316.315-.49.732-.49 1.178s.174.863.49 1.179c.325.323.753.485 1.18.485s.855-.162 1.18-.485l3.482-3.467.001-.002 1.01-1-.004-.004c.006-.006.015-.009.022-.015l5.166-5.658 3.471.494a.52.52 0 0 0 .262-.033c.018-.006.033-.015.05-.023.019-.01.039-.015.058-.027l3.213-2.133c.012-.008.018-.021.029-.029.013-.01.029-.014.041-.026l1.271-1.191c.662-.62.753-1.635.212-2.362zM2.13 17.77a.714.714 0 0 1-.558.052.717.717 0 0 1-.213-1.26l1.314-.632.449 1.312-.992.528zm3.498-1.828-1.548.8-.439-1.283 2.027-1.001-.04 1.484zm15.099-6.62a5.79 5.79 0 0 1-.599 2.559l-4.181-1.899a1.863 1.863 0 0 0-.788-1.388l1.464-4.86c2.378.756 4.105 2.974 4.105 5.588zm-11.789 0c0-3.235 2.644-5.867 5.894-5.867.253 0 .5.021.745.052l-1.432 4.754c-.019-.001-.037-.006-.057-.006-1.033 0-1.873.837-1.873 1.867s.84 1.867 1.873 1.867c.694 0 1.294-.383 1.618-.945l3.862 1.755a5.894 5.894 0 0 1-4.737 2.39c-3.25 0-5.894-2.632-5.894-5.867zm5.956.8c0 .441-.362.8-.806.8s-.806-.359-.806-.8c0-.441.362-.8.806-.8s.806.359.806.8zM2.465 25.146a.608.608 0 0 1-.854.001.592.592 0 0 1 0-.844l.962-.958.851.848-.959.955zm3.214 3.734a.608.608 0 0 1-.855.001.592.592 0 0 1 0-.844l.963-.959.852.848-.96.955zm3.481-3.469-.002.001-1.765 1.76-.852-.848 1.763-1.755.002-.001c.04-.04.065-.088.09-.135.007-.014.02-.026.026-.04.017-.041.019-.085.026-.129.003-.025.014-.047.014-.073 0-.036-.013-.07-.02-.106-.006-.032-.006-.065-.019-.095a.55.55 0 0 0-.091-.138c-.01-.012-.014-.027-.025-.038h-.001l-.001-.002-1.607-1.6c-.017-.017-.039-.024-.058-.038a.507.507 0 0 0-.087-.058.515.515 0 0 0-.093-.033.507.507 0 0 0-.103-.02.5.5 0 0 0-.095.005.53.53 0 0 0-.104.02.477.477 0 0 0-.094.045c-.02.011-.042.015-.061.029L4.23 23.486l-.901-.897 2.399-2.386 4.361 4.289-.928.919zm6.819-7.017c-.015-.002-.03.004-.045.003a.556.556 0 0 0-.3.075.492.492 0 0 0-.083.061c-.013.011-.028.017-.04.029l-4.698 5.146-4.328-4.257 2.833-2.818a.534.534 0 0 0-.379-.911v-.001l-2.219.013.028-1.607 3.104.027a6.947 6.947 0 0 0 4.981 2.101c.437 0 .864-.045 1.279-.123.04.032.079.065.13.085l2.41.96.331 1.644-3.003-.427zm4.041.178-.313-1.558 1.446-1.08.947 1.257-2.08 1.381zm3.754-2.831-.838.785-.931-1.236.831-.637a.735.735 0 0 1 .543-.143.718.718 0 0 1 .48.284.713.713 0 0 1-.085.947z"/><path fill="#212121" style="fill:var(--color1, #212121)" d="m13.602 18.544-2.143-2.133a.534.534 0 0 0-.753 0l-2.142 2.133a.537.537 0 0 0 0 .756l2.142 2.133a.536.536 0 0 0 .753 0l2.143-2.133a.535.535 0 0 0 0-.756zm-2.519 1.759-1.387-1.381 1.387-1.381 1.387 1.381-1.387 1.381zm6.081-15.232-.258 1.036c.071.018 1.738.452 1.738 2.149h1.067c0-2.017-1.666-2.965-2.547-3.185zm2.547 4.251h-1.067v1.067h1.067V9.322z"/></symbol><symbol id="icon-clock" viewBox="0 0 32 32"><path fill="#212121" style="fill:var(--color1, #212121)" d="M31.297 15.301C31.295 6.849 24.442-.002 15.989 0S.686 6.855.688 15.308a15.304 15.304 0 0 0 10.649 14.576.662.662 0 0 0 .529-.065.637.637 0 0 0 .283-.356l3.865-12.25a1.912 1.912 0 1 0-.84-3.635l-5.106-5.107a.637.637 0 0 0-.902.902l5.103 5.109a1.876 1.876 0 0 0 .536 2.309l-3.683 11.673C3.844 25.783.118 17.71 2.799 10.432S13.553-.572 20.831 2.109s11.004 10.754 8.323 18.032a14.042 14.042 0 0 1-7.462 7.973l-.398-1.874a.638.638 0 0 0-1.048-.344l-3.837 3.426a.637.637 0 0 0 .231 1.084l4.899 1.563a.638.638 0 0 0 .819-.74l-.391-1.839a15.255 15.255 0 0 0 9.329-14.089zm-15.305-.637a.638.638 0 1 1 0 1.277.638.638 0 0 1 0-1.277zm2.101 14.864 2.184-1.948.603 2.84-2.787-.892z"/><path fill="#2196f3" style="fill:var(--color2, #2196f3)" d="M15.354 3.185V4.46a.638.638 0 1 0 1.276 0V3.185a.638.638 0 0 0-1.276 0zM3.876 14.664a.638.638 0 0 0 0 1.276h1.275a.638.638 0 1 0 0-1.276H3.876zm24.232 1.275a.638.638 0 1 0 0-1.276h-1.275a.638.638 0 0 0 0 1.276h1.275z"/></symbol><symbol id="icon-diagram" viewBox="0 0 32 32"><path fill="#2196f3" style="fill:var(--color1, #2196f3)" d="M14.926 14.965h1.066v4.798h-1.066v-4.797zM19.19 17.097h1.066v2.665H19.19v-2.665zM10.661 18.696h1.066v1.066h-1.066v-1.066zM7.463 18.163h1.066v1.599H7.463v-1.599z"/><path fill="#212121" style="fill:var(--color2, #212121)" d="M1.599 28.291h25.587a1.6 1.6 0 0 0 1.599-1.599V24.56a1.6 1.6 0 0 0-1.599-1.599h-.533V9.668L29.681 6.8a1.608 1.608 0 1 0-.746-.763L26.654 8.2V6.97a1.6 1.6 0 0 0-1.599-1.599H3.733A1.6 1.6 0 0 0 2.134 6.97v15.992h-.533a1.6 1.6 0 0 0-1.599 1.599v2.132a1.6 1.6 0 0 0 1.599 1.599zM30.384 4.837a.533.533 0 1 1 0 1.067.533.533 0 0 1 0-1.067zM3.198 6.969c0-.294.239-.533.533-.533h21.322c.294 0 .533.239.533.533v2.239l-1.066 1.013V8.035a.533.533 0 0 0-.533-.533H4.797a.533.533 0 0 0-.533.533v13.326c0 .294.239.533.533.533h19.19a.533.533 0 0 0 .533-.533v-9.674l1.066-1.01v12.284H3.198V6.969zm4.798 6.93a1.598 1.598 0 1 0 1.107 2.749l1.853.93a.532.532 0 0 0 .636-.123l3.939-4.431 3.872 2.901a.533.533 0 0 0 .686-.039l3.365-3.188v8.131H5.33V8.569h18.124v2.66l-3.771 3.572-3.904-2.927a.533.533 0 0 0-.718.072l-3.993 4.493-1.493-.746c.011-.064.018-.129.02-.193a1.6 1.6 0 0 0-1.599-1.599zm.533 1.599a.533.533 0 1 1-1.067 0 .533.533 0 0 1 1.067 0zm3.198 8.529h5.331v.533a.533.533 0 0 1-.533.533h-4.264a.533.533 0 0 1-.533-.533v-.533zm-10.661.533c0-.294.239-.533.533-.533h9.062v.533a1.6 1.6 0 0 0 1.599 1.599h4.264a1.6 1.6 0 0 0 1.599-1.599v-.533h9.062c.294 0 .533.239.533.533v2.132a.533.533 0 0 1-.533.533H1.598a.533.533 0 0 1-.533-.533V24.56z"/></symbol><symbol id="icon-envelope-1" viewBox="0 0 43 32"><path d="M38.667 0H4C1.794 0 0 1.794 0 4v24c0 2.206 1.794 4 4 4h34.667c2.206 0 4-1.794 4-4V4c0-2.206-1.794-4-4-4zm0 2.667c.181 0 .353.038.511.103L21.334 18.236 3.49 2.77a1.32 1.32 0 0 1 .511-.103h34.667zm0 26.666H4A1.334 1.334 0 0 1 2.667 28V5.587L20.46 21.008a1.335 1.335 0 0 0 1.748 0L40.001 5.587V28c0 .736-.598 1.333-1.333 1.333z"/></symbol><symbol id="icon-facebook" viewBox="0 0 32 32"><path d="M21.329 5.313h2.921V.225C23.746.156 22.013 0 19.994 0c-4.212 0-7.097 2.649-7.097 7.519V12H8.249v5.688h4.648V32h5.699V17.689h4.46l.708-5.688h-5.169V8.082c.001-1.644.444-2.769 2.735-2.769z"/></symbol><symbol id="icon-instagram" viewBox="0 0 32 32"><path d="M31.969 9.408c-.075-1.7-.35-2.869-.744-3.882a7.806 7.806 0 0 0-1.851-2.838A7.867 7.867 0 0 0 26.542.844C25.523.45 24.36.175 22.66.1 20.947.019 20.403 0 16.059 0s-4.888.019-6.595.094c-1.7.075-2.869.35-3.882.744a7.803 7.803 0 0 0-2.838 1.85A7.867 7.867 0 0 0 .9 5.52C.506 6.539.231 7.702.156 9.402c-.081 1.713-.1 2.257-.1 6.601s.019 4.888.094 6.595c.075 1.7.35 2.869.744 3.882a7.895 7.895 0 0 0 1.85 2.838 7.867 7.867 0 0 0 2.832 1.844c1.019.394 2.182.669 3.882.744 1.706.075 2.25.094 6.595.094s4.888-.019 6.595-.094c1.7-.075 2.869-.35 3.882-.744a8.184 8.184 0 0 0 4.682-4.682c.394-1.019.669-2.182.744-3.882.075-1.707.094-2.251.094-6.595s-.006-4.888-.081-6.595zm-2.882 13.065c-.069 1.563-.331 2.407-.55 2.969a5.31 5.31 0 0 1-3.038 3.038c-.563.219-1.413.481-2.969.55-1.688.075-2.194.094-6.464.094s-4.782-.019-6.464-.094c-1.563-.069-2.407-.331-2.969-.55a4.926 4.926 0 0 1-1.838-1.194 4.974 4.974 0 0 1-1.194-1.838c-.219-.563-.481-1.413-.55-2.969-.075-1.688-.094-2.194-.094-6.464s.019-4.782.094-6.464c.069-1.563.331-2.407.55-2.969a4.868 4.868 0 0 1 1.2-1.838A4.974 4.974 0 0 1 6.639 3.55c.563-.219 1.413-.481 2.969-.55 1.688-.075 2.194-.094 6.464-.094 4.276 0 4.782.019 6.464.094 1.563.069 2.407.331 2.969.55a4.914 4.914 0 0 1 1.838 1.194 4.974 4.974 0 0 1 1.194 1.838c.219.563.481 1.413.55 2.969.075 1.688.094 2.194.094 6.464s-.019 4.77-.094 6.458z"/><path d="M16.059 7.783c-4.538 0-8.22 3.682-8.22 8.22s3.682 8.22 8.22 8.22c4.539 0 8.22-3.682 8.22-8.22s-3.682-8.22-8.22-8.22zm0 13.552a5.333 5.333 0 0 1 0-10.664 5.333 5.333 0 0 1 0 10.664zM26.524 7.458a1.919 1.919 0 1 1-3.838 0 1.919 1.919 0 0 1 3.838 0z"/></symbol><symbol id="icon-linkedin" viewBox="0 0 32 32"><path d="M31.992 32v-.001H32V20.263c0-5.741-1.236-10.164-7.948-10.164-3.227 0-5.392 1.771-6.276 3.449h-.093v-2.913h-6.364v21.364h6.627V21.42c0-2.785.528-5.479 3.977-5.479 3.399 0 3.449 3.179 3.449 5.657v10.401h6.62zM.528 10.636h6.635V32H.528V10.636zM3.843 0C1.722 0 0 1.721 0 3.843s1.721 3.879 3.843 3.879c2.121 0 3.843-1.757 3.843-3.879A3.846 3.846 0 0 0 3.843 0z"/></symbol><symbol id="icon-twitter" viewBox="0 0 32 32"><path d="M32 6.078c-1.19.522-2.458.868-3.78 1.036a6.523 6.523 0 0 0 2.886-3.626 13.11 13.11 0 0 1-4.16 1.588A6.574 6.574 0 0 0 22.154 3c-3.632 0-6.556 2.948-6.556 6.562 0 .52.044 1.02.152 1.496-5.454-.266-10.28-2.88-13.522-6.862a6.605 6.605 0 0 0-.898 3.316 6.57 6.57 0 0 0 2.914 5.452 6.479 6.479 0 0 1-2.964-.808v.072c0 3.188 2.274 5.836 5.256 6.446a6.548 6.548 0 0 1-1.72.216 5.8 5.8 0 0 1-1.242-.112c.85 2.598 3.262 4.508 6.13 4.57a13.182 13.182 0 0 1-8.134 2.798c-.538 0-1.054-.024-1.57-.09A18.469 18.469 0 0 0 10.064 29c12.072 0 18.672-10 18.672-18.668 0-.29-.01-.57-.024-.848A13.087 13.087 0 0 0 32 6.078z"/></symbol><symbol id="icon-phone" viewBox="0 0 20 32"><path d="M17 0H3C1.346 0 0 1.346 0 3v26c0 1.654 1.346 3 3 3h14c1.654 0 3-1.346 3-3V3c0-1.654-1.346-3-3-3zM3 2h14a1 1 0 0 1 1 1v21H2V3a1 1 0 0 1 1-1zm14 28H3a1 1 0 0 1-1-1v-3h16v3a1 1 0 0 1-1 1z"/></symbol><symbol id="icon-company6" viewBox="0 0 67 32">
<path d="M33.724 15.224c-0.315-0.419-0.466-0.915-0.43-1.414v-2.050c0-0.628 0.142-1.106 0.428-1.433s0.775-0.489 1.469-0.488c0.652 0 1.115 0.139 1.389 0.417 0.299 0.355 0.444 0.789 0.411 1.226v0.482h-1.167v-0.488c0.004-0.16-0.007-0.319-0.034-0.478-0.017-0.108-0.076-0.208-0.167-0.284-0.12-0.081-0.271-0.121-0.423-0.111-0.16-0.010-0.318 0.031-0.444 0.117-0.102 0.084-0.169 0.193-0.193 0.313-0.033 0.167-0.049 0.337-0.046 0.507v2.488c-0.018 0.24 0.033 0.48 0.15 0.699 0.058 0.074 0.139 0.132 0.233 0.169s0.198 0.050 0.301 0.039c0.149 0.011 0.298-0.030 0.413-0.113 0.095-0.082 0.156-0.188 0.174-0.302 0.027-0.165 0.039-0.332 0.036-0.498v-0.505h1.167v0.461c0.033 0.456-0.109 0.909-0.403 1.289-0.268 0.305-0.725 0.457-1.396 0.457s-1.179-0.163-1.466-0.501z"></path>
<path d="M38.583 15.245c-0.295-0.319-0.442-0.784-0.442-1.4v-2.157c0-0.609 0.147-1.070 0.442-1.383s0.788-0.469 1.478-0.467c0.686 0 1.177 0.156 1.471 0.467 0.295 0.313 0.444 0.774 0.444 1.383v2.157c0 0.609-0.15 1.076-0.449 1.397s-0.788 0.482-1.466 0.482c-0.679 0-1.181-0.163-1.478-0.48zM40.605 14.727c0.106-0.2 0.154-0.419 0.14-0.638v-2.641c0.014-0.215-0.034-0.43-0.138-0.626-0.059-0.075-0.142-0.135-0.238-0.172s-0.203-0.050-0.308-0.037c-0.105-0.013-0.212 0-0.308 0.037s-0.18 0.096-0.24 0.172c-0.106 0.195-0.154 0.41-0.14 0.626v2.653c-0.015 0.219 0.033 0.439 0.14 0.638 0.068 0.067 0.152 0.121 0.246 0.158s0.196 0.056 0.3 0.056c0.103 0 0.206-0.019 0.3-0.056s0.178-0.091 0.246-0.158v-0.012z"></path>
<path d="M43.38 9.901h1.256l0.945 3.979 0.966-3.979h1.222l0.123 5.743h-0.904l-0.097-3.992-0.932 3.992h-0.725l-0.966-4.006-0.089 4.006h-0.913l0.114-5.743z"></path>
<path d="M49.301 9.901h1.957c1.127 0 1.691 0.544 1.691 1.631 0 1.041-0.593 1.561-1.78 1.56h-0.667v2.553h-1.208l0.007-5.743zM50.973 12.356c0.119 0.013 0.24 0.004 0.355-0.028s0.22-0.084 0.309-0.154c0.139-0.194 0.2-0.422 0.174-0.649 0.006-0.175-0.013-0.35-0.058-0.521-0.017-0.057-0.047-0.111-0.089-0.158s-0.093-0.086-0.153-0.116c-0.168-0.069-0.353-0.101-0.539-0.092h-0.469v1.716h0.469z"></path>
<path d="M54.691 9.901h1.297l1.331 5.743h-1.126l-0.263-1.324h-1.157l-0.271 1.324h-1.143l1.331-5.743zM55.8 13.655l-0.452-2.411-0.452 2.411h0.903z"></path>
<path d="M58.395 9.901h0.846l1.619 3.276v-3.276h1.003v5.743h-0.804l-1.628-3.42v3.42h-1.036l0.002-5.743z"></path>
<path d="M64.209 13.455l-1.346-3.546h1.133l0.821 2.277 0.771-2.277h1.109l-1.329 3.546v2.19h-1.16v-2.19z"></path>
<path d="M35.589 18.156v0.3h-0.986v2.334h-0.413v-2.334h-0.99v-0.3h2.389z"></path>
<path d="M38.679 20.79h-0.319c-0.032 0.002-0.064-0.007-0.089-0.025-0.024-0.015-0.043-0.036-0.053-0.060l-0.285-0.626h-1.367l-0.285 0.626c-0.008 0.026-0.023 0.050-0.044 0.071-0.025 0.017-0.057 0.026-0.089 0.025h-0.319l1.208-2.634h0.42l1.222 2.624zM36.679 19.812h1.14l-0.483-1.072c-0.036-0.081-0.066-0.164-0.089-0.248-0.017 0.050-0.031 0.098-0.046 0.14l-0.044 0.11-0.478 1.070z"></path>
<path d="M40.762 20.532c0.076 0.003 0.151 0.003 0.227 0 0.065-0.006 0.13-0.016 0.193-0.031 0.059-0.013 0.117-0.029 0.174-0.048 0.053-0.019 0.106-0.042 0.162-0.065v-0.592h-0.483c-0.012 0.001-0.024-0.001-0.035-0.005s-0.021-0.009-0.030-0.016c-0.008-0.006-0.014-0.013-0.018-0.022s-0.006-0.017-0.006-0.026v-0.202h0.937v1.010c-0.077 0.047-0.157 0.089-0.242 0.125-0.086 0.037-0.176 0.067-0.268 0.090-0.099 0.025-0.2 0.043-0.302 0.054-0.117 0.011-0.235 0.017-0.353 0.017-0.208 0.002-0.415-0.032-0.609-0.098-0.181-0.063-0.345-0.156-0.483-0.275-0.134-0.12-0.24-0.262-0.312-0.417-0.076-0.175-0.114-0.36-0.111-0.547-0.003-0.188 0.034-0.374 0.109-0.551 0.069-0.156 0.176-0.298 0.312-0.417 0.138-0.119 0.302-0.212 0.483-0.273 0.207-0.067 0.426-0.1 0.647-0.098 0.112-0 0.225 0.008 0.336 0.023 0.098 0.014 0.195 0.036 0.288 0.067 0.084 0.027 0.165 0.062 0.242 0.104 0.074 0.041 0.144 0.087 0.21 0.138l-0.116 0.163c-0.009 0.015-0.023 0.027-0.039 0.036s-0.036 0.014-0.055 0.014c-0.027-0.001-0.053-0.008-0.075-0.021-0.036-0.017-0.075-0.038-0.118-0.063-0.051-0.028-0.106-0.052-0.162-0.071-0.072-0.025-0.146-0.044-0.222-0.058-0.101-0.016-0.204-0.024-0.307-0.023-0.159-0.002-0.318 0.023-0.466 0.073-0.134 0.047-0.256 0.118-0.355 0.209-0.1 0.095-0.177 0.206-0.225 0.328-0.108 0.285-0.108 0.593 0 0.878 0.053 0.124 0.135 0.237 0.242 0.332 0.099 0.090 0.219 0.162 0.353 0.209 0.154 0.046 0.316 0.063 0.478 0.052v0z"></path>
<path d="M44.612 20.49h1.319v0.3h-1.722v-2.634h0.413l-0.010 2.334z"></path>
<path d="M47.304 20.79h-0.413v-2.634h0.413v2.634z"></path>
<path d="M48.84 18.168c0.025 0.012 0.046 0.028 0.063 0.048l1.766 1.986c-0.002-0.031-0.002-0.063 0-0.094 0-0.029 0-0.058 0-0.085v-1.877h0.36v2.645h-0.208c-0.031 0.002-0.062-0.003-0.089-0.015-0.025-0.013-0.047-0.030-0.065-0.050l-1.764-1.984c0 0.031 0 0.061 0 0.090s0 0.056 0 0.081v1.877h-0.345v-2.634h0.215c0.023 0 0.046 0.004 0.068 0.012v0z"></path>
<path d="M54.070 18.156v0.29h-1.464v0.87h1.186v0.279h-1.186v0.899h1.464v0.29h-1.889v-2.628h1.889z"></path>
<path d="M10.782 1.888l18.343 4.497v15.757l-18.343-4.494v-15.759zM9.605 0.545v17.867l20.694 5.074v-17.865l-20.694-5.076z"></path>
<path d="M20.696 31.781l-20.696-5.079v-17.866l20.696 5.076v17.868z"></path>
<path d="M9.948 1.686l18.104 4.44-7.699 6.649-18.106-4.442 7.702-6.647zM9.605 0.545l-9.605 8.292 20.696 5.076 9.603-8.292-20.694-5.076z"></path>
<path d="M21.861 30.776l8.438-7.287-8.438-2.071v9.358z"></path>
</symbol>
<symbol id="icon-company5" viewBox="0 0 43 32">
<path d="M3.239 26.373c0.166 0.188 0.254 0.424 0.25 0.665 0.008 0.158-0.022 0.315-0.089 0.46s-0.169 0.275-0.298 0.38c-0.322 0.223-0.722 0.332-1.125 0.307h-1.977v-4.215h1.937c0.382-0.023 0.761 0.076 1.073 0.28 0.125 0.096 0.224 0.217 0.289 0.354s0.095 0.286 0.086 0.435c0.011 0.233-0.068 0.461-0.225 0.645-0.15 0.168-0.358 0.284-0.589 0.329 0.262 0.044 0.499 0.172 0.668 0.36v0zM0.92 25.737h0.828c0.188 0.013 0.375-0.037 0.526-0.14 0.062-0.052 0.111-0.116 0.141-0.187s0.043-0.148 0.036-0.225c0.006-0.076-0.007-0.153-0.037-0.224s-0.078-0.135-0.138-0.188c-0.156-0.106-0.349-0.156-0.542-0.142h-0.814v1.106zM2.355 27.353c0.066-0.053 0.119-0.119 0.153-0.193s0.049-0.155 0.043-0.235c0.005-0.081-0.010-0.163-0.045-0.238s-0.088-0.142-0.155-0.195c-0.162-0.11-0.361-0.164-0.562-0.152h-0.868v1.159h0.879c0.198 0.011 0.394-0.041 0.556-0.146v0z"></path>
<path d="M7.197 28.185l-1.077-1.647h-0.405v1.647h-0.927v-4.215h1.754c0.442-0.028 0.879 0.1 1.221 0.358 0.245 0.229 0.393 0.53 0.417 0.85s-0.078 0.637-0.287 0.894c-0.216 0.227-0.512 0.378-0.837 0.428l1.147 1.684h-1.008zM5.715 25.963h0.758c0.526 0 0.789-0.213 0.789-0.638 0.005-0.087-0.009-0.174-0.042-0.255s-0.085-0.156-0.151-0.218c-0.166-0.127-0.38-0.188-0.596-0.171h-0.767l0.009 1.283z"></path>
<path d="M12.262 27.337h-1.847l-0.326 0.848h-0.972l1.696-4.168h1.050l1.689 4.168h-0.972l-0.319-0.848zM12.015 26.698l-0.675-1.779-0.675 1.779h1.349z"></path>
<path d="M18.602 28.185h-0.92l-2.062-2.867v2.867h-0.918v-4.215h0.918l2.062 2.883v-2.883h0.92v4.215z"></path>
<path d="M23.852 27.176c-0.19 0.318-0.48 0.577-0.832 0.743-0.4 0.185-0.845 0.276-1.293 0.266h-1.637v-4.215h1.637c0.448-0.011 0.891 0.078 1.293 0.259 0.352 0.163 0.642 0.419 0.832 0.735 0.189 0.343 0.288 0.722 0.288 1.106s-0.099 0.763-0.288 1.106v0zM22.799 27.075c0.263-0.28 0.407-0.637 0.407-1.006s-0.144-0.726-0.407-1.006c-0.317-0.254-0.731-0.382-1.152-0.358h-0.639v2.729h0.639c0.42 0.024 0.834-0.105 1.152-0.358z"></path>
<path d="M12.838 0.522c0 0 11.873 4.104 11.621 10.043v10.045c0 0-11.864-4.106-11.617-10.045l-0.005-10.043z"></path>
<path d="M35.037 18.259c2.242-1.413 4.836-2.288 7.544-2.545v-3.145c-3.12 1.101-5.766 3.097-7.544 5.69v0z"></path>
<path d="M33.69 19.206c1.835-3.384 5.017-5.995 8.891-7.296v-9.061c0 0-16.909 5.846-16.551 14.304v14.302c0 0 0.753-0.262 1.939-0.752 0-0.457 0-0.918 0.054-1.382 0.35-3.926 2.389-7.565 5.668-10.115v0z"></path>
<path d="M32.081 24.52c0.089-0.992 0.287-1.973 0.592-2.928-2.042 2.203-3.278 4.936-3.536 7.815-0.025 0.272-0.038 0.544-0.045 0.824 0.96-0.422 2.078-0.949 3.252-1.569-0.3-1.362-0.388-2.756-0.263-4.141v0z"></path>
<path d="M32.754 24.571c-0.113 1.253-0.042 2.514 0.209 3.75 4.62-2.531 9.811-6.442 9.611-11.168v-0.412c-3.301 0.338-6.389 1.659-8.79 3.76-0.562 1.302-0.909 2.674-1.030 4.069v0z"></path>
</symbol>
<symbol id="icon-company4" viewBox="0 0 65 32">
<path d="M10.016 9.983h-0.002c-1.827 0-3.308 1.316-3.308 2.94v0.002c0 1.624 1.481 2.94 3.308 2.94h0.002c1.827 0 3.308-1.316 3.308-2.94v-0.002c0-1.624-1.481-2.94-3.308-2.94z"></path>
<path d="M34.434 9.043c-0.005-2.255-1.015-4.417-2.81-6.012s-4.226-2.493-6.764-2.498v0c-2.538 0.004-4.972 0.902-6.767 2.497s-2.806 3.757-2.811 6.013v0 12.436c0 0 19.149-1.895 19.151-12.434v-0.002z"></path>
<path d="M0 25.562c0.005 1.569 0.708 3.073 1.956 4.183s2.94 1.735 4.706 1.74v0c1.765-0.005 3.457-0.63 4.705-1.739s1.952-2.613 1.957-4.182v0-8.654c0 0-13.325 1.32-13.325 8.652zM6.662 27.112c-0.345 0-0.682-0.091-0.969-0.261s-0.511-0.413-0.643-0.696c-0.132-0.283-0.167-0.595-0.099-0.896s0.233-0.577 0.477-0.794 0.555-0.364 0.893-0.424c0.338-0.060 0.689-0.029 1.008 0.088s0.591 0.316 0.783 0.571c0.192 0.255 0.294 0.555 0.294 0.861 0.001 0.204-0.044 0.406-0.131 0.595s-0.216 0.36-0.378 0.505c-0.162 0.145-0.355 0.259-0.567 0.338s-0.439 0.119-0.669 0.119v-0.006z"></path>
<path d="M20.128 26.258h-1.286v1.328h-0.67v-3.25h2.116v0.542h-1.446v0.839h1.286v0.54zM23.346 26.035c0 0.32-0.057 0.6-0.17 0.842s-0.275 0.427-0.487 0.558c-0.21 0.131-0.451 0.196-0.723 0.196-0.269 0-0.51-0.065-0.721-0.194s-0.375-0.314-0.491-0.554c-0.116-0.241-0.175-0.518-0.176-0.83v-0.161c0-0.32 0.057-0.601 0.172-0.844 0.116-0.244 0.279-0.431 0.489-0.56 0.211-0.131 0.452-0.196 0.723-0.196s0.511 0.065 0.721 0.196c0.211 0.129 0.374 0.316 0.489 0.56 0.116 0.242 0.174 0.523 0.174 0.841v0.145zM22.668 25.888c0-0.341-0.061-0.6-0.183-0.777s-0.296-0.266-0.522-0.266c-0.225 0-0.398 0.088-0.52 0.263-0.122 0.174-0.184 0.43-0.185 0.768v0.158c0 0.332 0.061 0.589 0.183 0.772s0.298 0.275 0.527 0.275c0.225 0 0.397-0.088 0.518-0.263 0.121-0.177 0.182-0.434 0.183-0.772v-0.158zM25.518 26.734c0-0.126-0.045-0.223-0.134-0.29-0.089-0.068-0.25-0.14-0.482-0.214-0.232-0.076-0.416-0.15-0.551-0.223-0.369-0.199-0.554-0.468-0.554-0.806 0-0.176 0.049-0.332 0.147-0.469 0.1-0.138 0.242-0.246 0.426-0.324 0.186-0.077 0.394-0.116 0.625-0.116 0.232 0 0.439 0.042 0.621 0.127 0.181 0.083 0.322 0.202 0.422 0.355 0.101 0.153 0.152 0.327 0.152 0.522h-0.67c0-0.149-0.047-0.264-0.141-0.346-0.094-0.083-0.225-0.125-0.395-0.125-0.164 0-0.291 0.035-0.382 0.105-0.091 0.068-0.136 0.159-0.136 0.272 0 0.106 0.053 0.194 0.158 0.266 0.107 0.071 0.264 0.138 0.471 0.201 0.381 0.115 0.659 0.257 0.833 0.426s0.261 0.381 0.261 0.634c0 0.281-0.106 0.502-0.319 0.663-0.213 0.159-0.499 0.239-0.859 0.239-0.25 0-0.478-0.045-0.683-0.136-0.205-0.092-0.362-0.218-0.471-0.377-0.107-0.159-0.161-0.344-0.161-0.554h0.672c0 0.359 0.214 0.538 0.643 0.538 0.159 0 0.284-0.032 0.373-0.096 0.089-0.065 0.134-0.156 0.134-0.272zM29.092 24.879h-0.996v2.708h-0.67v-2.708h-0.982v-0.542h2.647v0.542zM31.431 26.178h-1.286v0.871h1.509v0.538h-2.179v-3.25h2.174v0.542h-1.504v0.775h1.286v0.525zM33.251 26.396h-0.533v1.19h-0.67v-3.25h1.208c0.384 0 0.68 0.086 0.888 0.257s0.312 0.413 0.312 0.725c0 0.222-0.048 0.407-0.145 0.556-0.095 0.147-0.24 0.265-0.435 0.353l0.703 1.328v0.031h-0.719l-0.609-1.19zM32.717 25.854h0.54c0.168 0 0.298-0.042 0.391-0.127 0.092-0.086 0.138-0.205 0.138-0.355 0-0.153-0.044-0.274-0.132-0.362-0.086-0.088-0.219-0.132-0.4-0.132h-0.538v0.975zM36.775 26.441v1.145h-0.67v-3.25h1.268c0.244 0 0.458 0.045 0.643 0.134 0.186 0.089 0.329 0.216 0.429 0.382 0.1 0.164 0.15 0.35 0.15 0.56 0 0.318-0.109 0.57-0.328 0.754-0.217 0.183-0.519 0.275-0.904 0.275h-0.587zM36.775 25.899h0.598c0.177 0 0.312-0.042 0.404-0.125 0.094-0.083 0.141-0.202 0.141-0.357 0-0.159-0.047-0.288-0.141-0.386s-0.223-0.149-0.388-0.152h-0.614v1.020zM41.012 26.178h-1.286v0.871h1.509v0.538h-2.179v-3.25h2.174v0.542h-1.504v0.775h1.286v0.525zM44.119 24.879h-0.995v2.708h-0.67v-2.708h-0.982v-0.542h2.647v0.542zM46.458 26.178h-1.286v0.871h1.509v0.538h-2.178v-3.25h2.174v0.542h-1.504v0.775h1.286v0.525zM48.277 26.396h-0.533v1.19h-0.67v-3.25h1.208c0.384 0 0.68 0.086 0.888 0.257s0.313 0.413 0.313 0.725c0 0.222-0.048 0.407-0.145 0.556-0.095 0.147-0.24 0.265-0.435 0.353l0.703 1.328v0.031h-0.719l-0.609-1.19zM47.744 25.854h0.54c0.168 0 0.298-0.042 0.391-0.127 0.092-0.086 0.138-0.205 0.138-0.355 0-0.153-0.044-0.274-0.132-0.362-0.086-0.088-0.219-0.132-0.4-0.132h-0.538v0.975zM51.679 26.734c0-0.126-0.045-0.223-0.134-0.29-0.089-0.068-0.25-0.14-0.482-0.214-0.232-0.076-0.416-0.15-0.551-0.223-0.369-0.199-0.554-0.468-0.554-0.806 0-0.176 0.049-0.332 0.147-0.469 0.1-0.138 0.242-0.246 0.426-0.324 0.186-0.077 0.394-0.116 0.625-0.116 0.232 0 0.439 0.042 0.621 0.127 0.182 0.083 0.322 0.202 0.422 0.355 0.101 0.153 0.152 0.327 0.152 0.522h-0.67c0-0.149-0.047-0.264-0.141-0.346-0.094-0.083-0.225-0.125-0.395-0.125-0.164 0-0.291 0.035-0.382 0.105-0.091 0.068-0.136 0.159-0.136 0.272 0 0.106 0.053 0.194 0.158 0.266 0.107 0.071 0.264 0.138 0.471 0.201 0.381 0.115 0.658 0.257 0.833 0.426s0.261 0.381 0.261 0.634c0 0.281-0.106 0.502-0.319 0.663-0.213 0.159-0.499 0.239-0.859 0.239-0.25 0-0.478-0.045-0.683-0.136-0.205-0.092-0.362-0.218-0.471-0.377-0.107-0.159-0.161-0.344-0.161-0.554h0.672c0 0.359 0.214 0.538 0.643 0.538 0.159 0 0.283-0.032 0.373-0.096 0.089-0.065 0.134-0.156 0.134-0.272z"></path>
</symbol>
<symbol id="icon-company3" viewBox="0 0 34 32">
<path d="M5.643 31.315c0.012 0 0.024 0.003 0.035 0.007s0.021 0.011 0.029 0.018l0.166 0.159c-0.129 0.129-0.288 0.231-0.467 0.302-0.21 0.076-0.435 0.113-0.663 0.108-0.213 0.004-0.426-0.031-0.623-0.101-0.178-0.065-0.338-0.162-0.469-0.285-0.134-0.128-0.237-0.278-0.303-0.44-0.073-0.182-0.108-0.373-0.106-0.565-0.003-0.193 0.036-0.386 0.114-0.567 0.073-0.164 0.182-0.314 0.322-0.44 0.142-0.124 0.312-0.222 0.499-0.287 0.205-0.069 0.422-0.103 0.642-0.101 0.204-0.004 0.407 0.027 0.596 0.092 0.165 0.062 0.316 0.148 0.447 0.255l-0.139 0.17c-0.010 0.012-0.022 0.022-0.035 0.031-0.016 0.010-0.036 0.014-0.056 0.013-0.022-0.001-0.042-0.008-0.060-0.018l-0.075-0.045-0.104-0.058c-0.045-0.021-0.091-0.040-0.139-0.056-0.062-0.019-0.125-0.034-0.189-0.045-0.082-0.013-0.164-0.019-0.247-0.018-0.158-0.002-0.315 0.024-0.461 0.076-0.136 0.048-0.26 0.121-0.361 0.213-0.104 0.098-0.183 0.214-0.235 0.339-0.058 0.144-0.087 0.295-0.085 0.448-0.002 0.155 0.026 0.309 0.085 0.455 0.051 0.125 0.129 0.239 0.231 0.338 0.095 0.092 0.213 0.163 0.345 0.209 0.136 0.049 0.281 0.073 0.428 0.072 0.085 0.001 0.17-0.004 0.253-0.014 0.137-0.015 0.268-0.056 0.384-0.121 0.058-0.033 0.113-0.071 0.164-0.112 0.021-0.018 0.049-0.028 0.079-0.029v0z"></path>
<path d="M10.441 30.517c0.003 0.192-0.035 0.382-0.112 0.561-0.068 0.163-0.174 0.311-0.313 0.436s-0.306 0.222-0.491 0.286c-0.407 0.135-0.856 0.135-1.263 0-0.184-0.065-0.35-0.163-0.488-0.287-0.138-0.127-0.246-0.276-0.316-0.44-0.15-0.364-0.15-0.761 0-1.125 0.071-0.164 0.178-0.314 0.316-0.442 0.139-0.12 0.305-0.214 0.488-0.276 0.406-0.137 0.857-0.137 1.263 0 0.185 0.065 0.351 0.163 0.49 0.287 0.137 0.125 0.243 0.273 0.314 0.435 0.077 0.181 0.115 0.372 0.112 0.565zM10.005 30.517c0.003-0.153-0.023-0.306-0.079-0.451-0.047-0.125-0.122-0.239-0.222-0.338-0.097-0.093-0.217-0.166-0.351-0.213-0.296-0.099-0.623-0.099-0.918 0-0.134 0.047-0.254 0.12-0.351 0.213-0.101 0.097-0.178 0.212-0.224 0.338-0.106 0.294-0.106 0.609 0 0.903 0.047 0.125 0.123 0.24 0.224 0.338 0.098 0.092 0.217 0.164 0.351 0.211 0.296 0.096 0.622 0.096 0.918 0 0.134-0.047 0.254-0.119 0.351-0.211 0.1-0.098 0.175-0.213 0.222-0.338 0.056-0.145 0.082-0.298 0.079-0.451v0z"></path>
<path d="M13.715 30.99l0.044 0.101c0.017-0.036 0.031-0.069 0.048-0.101 0.016-0.034 0.034-0.067 0.054-0.099l1.062-1.677c0.021-0.029 0.039-0.047 0.060-0.052 0.028-0.007 0.058-0.011 0.087-0.009h0.314v2.727h-0.372v-2.005c0-0.025 0-0.054 0-0.085-0.002-0.031-0.002-0.063 0-0.094l-1.068 1.7c-0.014 0.025-0.035 0.047-0.063 0.062s-0.059 0.023-0.091 0.023h-0.060c-0.032 0-0.064-0.007-0.091-0.022s-0.049-0.037-0.062-0.062l-1.099-1.711c0 0.032 0 0.065 0 0.097s0 0.061 0 0.087v2.005h-0.359v-2.722h0.314c0.030-0.002 0.059 0.002 0.087 0.009 0.026 0.011 0.046 0.030 0.058 0.052l1.084 1.678c0.021 0.031 0.039 0.064 0.054 0.097v0z"></path>
<path d="M17.71 30.855v1.021h-0.415v-2.723h0.926c0.175-0.003 0.349 0.017 0.517 0.059 0.134 0.033 0.259 0.091 0.366 0.17 0.092 0.074 0.163 0.165 0.208 0.267 0.049 0.111 0.073 0.229 0.071 0.348 0.002 0.119-0.024 0.238-0.077 0.348-0.050 0.104-0.127 0.198-0.224 0.273-0.107 0.082-0.232 0.143-0.368 0.18-0.162 0.045-0.331 0.066-0.501 0.063l-0.503-0.007zM17.71 30.562h0.503c0.109 0.001 0.218-0.013 0.322-0.041 0.086-0.025 0.165-0.065 0.233-0.117 0.062-0.050 0.111-0.112 0.141-0.18 0.034-0.073 0.051-0.151 0.050-0.229 0.005-0.076-0.009-0.151-0.042-0.222s-0.082-0.134-0.145-0.186c-0.159-0.108-0.358-0.16-0.559-0.146h-0.503v1.122z"></path>
<path d="M23.294 31.88h-0.328c-0.033 0.001-0.065-0.008-0.091-0.025-0.024-0.017-0.042-0.039-0.054-0.063l-0.282-0.659h-1.419l-0.293 0.659c-0.011 0.024-0.029 0.045-0.052 0.061-0.026 0.018-0.060 0.028-0.093 0.027h-0.328l1.246-2.727h0.432l1.263 2.727zM21.237 30.867h1.172l-0.494-1.11c-0.038-0.084-0.069-0.169-0.093-0.256l-0.048 0.143c-0.014 0.043-0.031 0.083-0.046 0.116l-0.49 1.108z"></path>
<path d="M25.089 29.165c0.025 0.012 0.046 0.029 0.062 0.049l1.818 2.056c0-0.032 0-0.065 0-0.096s0-0.061 0-0.090v-1.931h0.372v2.727h-0.208c-0.030 0.001-0.059-0.005-0.085-0.016-0.026-0.013-0.048-0.030-0.067-0.050l-1.816-2.054c0.002 0.031 0.002 0.063 0 0.094 0 0.031 0 0.058 0 0.083v1.944h-0.372v-2.727h0.22c0.026-0.001 0.051 0.004 0.075 0.013v0z"></path>
<path d="M30.402 30.795v1.083h-0.415v-1.083l-1.149-1.642h0.372c0.032-0.002 0.064 0.007 0.089 0.023 0.023 0.018 0.042 0.038 0.056 0.061l0.719 1.059c0.029 0.045 0.054 0.087 0.075 0.126s0.037 0.078 0.052 0.116l0.054-0.117c0.020-0.043 0.044-0.084 0.071-0.125l0.708-1.067c0.015-0.021 0.033-0.041 0.054-0.058 0.025-0.019 0.057-0.028 0.089-0.027h0.376l-1.151 1.65z"></path>
<path d="M13.51 24.576c0.181 0.020 0.364 0.036 0.548 0.051 2.803-1.089 5.174-2.873 6.817-5.126s2.485-4.878 2.421-7.546l-3.089-2.684c0.628 2.84 0.334 5.776-0.849 8.479s-3.208 5.067-5.849 6.827v0z"></path>
<path d="M12.407 24.451l0.083 0.014c2.822-1.754 4.974-4.203 6.176-7.030s1.402-5.904 0.571-8.83l-4.4-3.823c1.78 3.142 2.496 6.659 2.066 10.141s-1.989 6.786-4.496 9.528v0z"></path>
<path d="M27.328 15.106c-0.747 2.931-2.563 5.574-5.177 7.537-0.763 0.576-1.587 1.090-2.46 1.534 2.128-0.544 4.085-1.504 5.718-2.809s2.9-2.917 3.703-4.714l-1.784-1.549z"></path>
<path d="M26.628 14.674l-2.541-2.207c-0.049 2.517-0.872 4.976-2.385 7.123s-3.66 3.902-6.217 5.084h0.012c0.57-0 1.139-0.030 1.705-0.088 2.39-0.848 4.502-2.196 6.147-3.926s2.771-3.785 3.278-5.985v0z"></path>
<path d="M12.774 3.17l-3.031-2.637c-2.709 0.91-5.040 2.509-6.686 4.588s-2.531 4.542-2.54 7.066v0c0.010 2.789 1.090 5.495 3.070 7.69s4.745 3.754 7.859 4.43c2.78-2.942 4.407-6.579 4.646-10.38s-0.924-7.569-3.319-10.757v0z"></path>
<path d="M33.63 14.268c-0.011-3.309-1.529-6.479-4.221-8.818s-6.342-3.658-10.15-3.668v0c-1.76-0.002-3.504 0.281-5.146 0.832l18.557 16.123c0.635-1.425 0.961-2.94 0.96-4.469v0z"></path>
</symbol>
<symbol id="icon-company2" viewBox="0 0 37 32">
<path d="M15.647 2.683h-0.125c-0.192-0.012-0.384-0.016-0.576-0.021v0h-0.416c-0.363 0-0.733 0.009-1.101 0.028-0.028-0.002-0.056-0.002-0.083 0-3.332 0.189-6.596 1.022-9.615 2.453l-0.396 0.191v20.243l0.925-0.314c0.812-0.279 1.677-0.53 2.572-0.763 2.42-0.621 4.904-0.951 7.401-0.983v2.66c-0.331 0.002-0.652 0.012-0.974 0.028h-0.076c-1.922 0.105-3.829 0.398-5.694 0.874-2.363 0.592-4.642 1.48-6.784 2.643v-25.963c2.225-1.298 4.621-2.272 7.117-2.895 2.192-0.566 4.445-0.856 6.707-0.865h0.391c0.467 0.012 0.923 0.033 1.351 0.065 1.127 0.079 2.246 0.257 3.342 0.532v2.618c-1.065-0.248-2.148-0.411-3.238-0.488-0.022-0.002-0.044-0.004-0.066-0.006-0.226-0.019-0.452-0.039-0.662-0.039zM20.254 5.359c0.58 0.044 1.182 0.065 1.79 0.065 2.379-0.009 4.747-0.312 7.052-0.904 2.361-0.594 4.64-1.483 6.781-2.646v25.5c-2.226 1.297-4.622 2.271-7.119 2.895-2.192 0.564-4.445 0.853-6.707 0.863-1.714 0.014-3.424-0.188-5.088-0.6v-25.665c0.393 0.091 0.798 0.174 1.21 0.244 0.675 0.114 1.388 0.198 2.082 0.249zM33.232 5.557l-0.925 0.312c-0.851 0.286-1.709 0.542-2.572 0.77-2.512 0.645-5.093 0.977-7.686 0.986-0.604 0-1.159-0.016-1.695-0.051l-0.738-0.049v20.825l0.634 0.056c0.588 0.051 1.194 0.077 1.804 0.077 2.042-0.009 4.075-0.272 6.053-0.783 1.628-0.409 3.213-0.978 4.73-1.7l0.396-0.191v-20.25z"></path>
</symbol>
<symbol id="icon-company1" viewBox="0 0 28 32">
<path d="M4.085 0l4.771 4.517-8.856-0.005v21.915h23.149v-8.379l4.766 4.512v-22.559h-23.83zM22.939 17.517l-13.528-12.807h13.528v12.807zM18.739 23.221h-15.076v-14.739h1.066v13.741h14.010v0.998zM7.223 29.344l-0.557 1.147-0.557-1.147h-0.467l0.813 1.529v0.891h0.422v-0.891l0.811-1.529h-0.465zM7.923 31.764l0.196-0.563h0.938l0.198 0.563h0.439l-0.916-2.42h-0.377l-0.914 2.42h0.437zM8.588 29.858l0.351 1.004h-0.701l0.351-1.004zM10.805 30.804c-0.061 0.093-0.091 0.196-0.091 0.307 0 0.204 0.072 0.37 0.214 0.497 0.144 0.126 0.336 0.189 0.575 0.189s0.445-0.065 0.618-0.194l0.136 0.161h0.469l-0.356-0.421c0.14-0.191 0.209-0.435 0.209-0.733h-0.351c0 0.163-0.034 0.311-0.101 0.444l-0.467-0.552 0.165-0.12c0.116-0.084 0.2-0.168 0.251-0.253 0.051-0.085 0.076-0.178 0.076-0.279 0-0.153-0.056-0.281-0.17-0.384-0.112-0.104-0.256-0.156-0.432-0.156-0.195 0-0.35 0.055-0.465 0.166-0.115 0.11-0.173 0.259-0.173 0.449 0 0.078 0.018 0.158 0.055 0.241 0.038 0.083 0.104 0.184 0.198 0.303-0.18 0.129-0.3 0.24-0.361 0.334zM11.897 31.339c-0.119 0.091-0.246 0.136-0.382 0.136-0.121 0-0.217-0.035-0.289-0.105s-0.108-0.161-0.108-0.273c0-0.13 0.067-0.245 0.2-0.346l0.052-0.037 0.529 0.623zM11.463 30.267c-0.114-0.141-0.171-0.258-0.171-0.351 0-0.081 0.023-0.148 0.070-0.201s0.109-0.080 0.188-0.080c0.073 0 0.133 0.023 0.181 0.068 0.048 0.044 0.072 0.098 0.072 0.161 0 0.095-0.034 0.173-0.103 0.234l-0.052 0.042-0.184 0.126zM15.403 31.581c0.166-0.145 0.262-0.347 0.286-0.605h-0.419c-0.022 0.173-0.075 0.296-0.158 0.371s-0.207 0.111-0.372 0.111c-0.181 0-0.318-0.069-0.412-0.206-0.093-0.137-0.14-0.337-0.14-0.598v-0.214c0.002-0.258 0.052-0.454 0.15-0.587 0.099-0.134 0.239-0.201 0.422-0.201 0.157 0 0.277 0.039 0.357 0.116 0.082 0.076 0.133 0.202 0.153 0.376h0.419c-0.027-0.265-0.121-0.47-0.284-0.615s-0.378-0.218-0.645-0.218c-0.198 0-0.373 0.047-0.525 0.141-0.151 0.094-0.267 0.228-0.347 0.402s-0.121 0.375-0.121 0.603v0.226c0.003 0.223 0.045 0.418 0.125 0.587s0.193 0.299 0.339 0.391c0.147 0.091 0.317 0.136 0.51 0.136 0.276 0 0.497-0.072 0.663-0.216zM17.875 31.242c0.082-0.18 0.123-0.388 0.123-0.625v-0.135c-0.001-0.236-0.043-0.443-0.126-0.62-0.083-0.178-0.201-0.315-0.354-0.409-0.152-0.095-0.326-0.143-0.524-0.143s-0.372 0.048-0.525 0.145c-0.152 0.095-0.27 0.233-0.354 0.414-0.083 0.181-0.125 0.389-0.125 0.625v0.136c0.001 0.232 0.043 0.436 0.126 0.613 0.084 0.177 0.203 0.314 0.356 0.411 0.154 0.095 0.329 0.143 0.525 0.143 0.198 0 0.373-0.048 0.525-0.143 0.153-0.096 0.27-0.234 0.352-0.412zM17.424 29.874c0.102 0.143 0.153 0.349 0.153 0.617v0.126c0 0.273-0.050 0.48-0.151 0.622-0.1 0.142-0.243 0.213-0.429 0.213-0.184 0-0.328-0.073-0.432-0.218-0.103-0.145-0.155-0.351-0.155-0.617v-0.14c0.002-0.26 0.054-0.462 0.156-0.603 0.103-0.143 0.245-0.214 0.427-0.214 0.186 0 0.33 0.072 0.43 0.214z"></path>
</symbol>
<symbol id="icon-send" viewBox="0 0 32 32">
<path d="M32 0l-32 18 10.227 3.788 15.773-14.788-11.998 16.186 0.010 0.004-0.012-0.004v8.814l5.735-6.691 7.265 2.691 5-28z"></path>
</symbol>
<symbol id="icon-Vector" viewBox="0 0 42 32">
<path stroke-linejoin="miter" stroke-linecap="butt" stroke-miterlimit="4" stroke-width="0.64" d="M6.263 15.205l-0.22-0.21-3.307 3.132 11.651 11.114 24.477-23.351-3.285-3.134-21.192 20.197-8.124-7.75z"></path>
</symbol>
<symbol id="icon-user-email" viewBox="0 0 32 32">
<path d="M26.667 5.333h-21.333c-1.467 0-2.653 1.2-2.653 2.667l-0.013 16c0 1.467 1.2 2.667 2.667 2.667h21.333c1.467 0 2.667-1.2 2.667-2.667v-16c0-1.467-1.2-2.667-2.667-2.667zM26.133 11l-9.427 5.893c-0.427 0.267-0.987 0.267-1.413 0l-9.427-5.893c-0.333-0.213-0.533-0.573-0.533-0.96 0-0.893 0.973-1.427 1.733-0.96l8.933 5.587 8.933-5.587c0.76-0.467 1.733 0.067 1.733 0.96 0 0.387-0.2 0.747-0.533 0.96z"></path>
</symbol>
<symbol id="icon-user-name" viewBox="0 0 32 32">
<path d="M16 16c2.947 0 5.333-2.387 5.333-5.333s-2.387-5.333-5.333-5.333c-2.947 0-5.333 2.387-5.333 5.333s2.387 5.333 5.333 5.333zM16 18.667c-3.56 0-10.667 1.787-10.667 5.333v1.333c0 0.733 0.6 1.333 1.333 1.333h18.667c0.733 0 1.333-0.6 1.333-1.333v-1.333c0-3.547-7.107-5.333-10.667-5.333z"></path>
</symbol>
<symbol id="icon-user-phone-number" viewBox="0 0 32 32">
<path d="M24.882 19.773l-3.268-0.373c-0.785-0.090-1.557 0.18-2.11 0.733l-2.367 2.367c-3.641-1.853-6.626-4.825-8.478-8.478l2.38-2.38c0.553-0.553 0.823-1.325 0.733-2.11l-0.373-3.242c-0.154-1.299-1.248-2.277-2.56-2.277h-2.226c-1.454 0-2.663 1.209-2.573 2.663 0.682 10.987 9.469 19.761 20.443 20.443 1.454 0.090 2.663-1.119 2.663-2.573v-2.226c0.013-1.3-0.965-2.393-2.264-2.547z"></path>
</symbol>
<symbol id="icon-close" viewBox="0 0 32 32"><path d="m26.667 7.303-1.97-1.97-7.808 7.808-7.808-7.808-1.97 1.97 7.808 7.808-7.808 7.808 1.97 1.97 7.808-7.808 7.808 7.808 1.97-1.97-7.808-7.808 7.808-7.808z"/></symbol>

</defs></svg>